PathFileType	4	(X/Y/Z)	C:\Users\WrightLab\Desktop\Jo\P5V24.trc
DataRate	CameraRate	NumFrames	NumMarkers	Units	OrigDataRate	OrigDataStartFrame	OrigNumFrames
100.00	100.00	      12	19	mm	100.00	726	      1161
Frame#	Time	Headset_Front			Headset_Back			Headset_Left			Headset_Right			Left_Shoulder			Right_Shoulder			Sternum			C7			Left Elbow			Right Elbow			Left Wrist			Right Wrist			Left ASIS			Right ASIS			S2			Left Knee			Right Knee			Left Ankle			Right Ankle			
		X1	Y1	Z1	X2	Y2	Z2	X3	Y3	Z3	X4	Y4	Z4	X5	Y5	Z5	X6	Y6	Z6	X7	Y7	Z7	X8	Y8	Z8	X9	Y9	Z9	X10	Y10	Z10	X11	Y11	Z11	X12	Y12	Z12	X13	Y13	Z13	X14	Y14	Z14	X15	Y15	Z15	X16	Y16	Z16	X17	Y17	Z17	X18	Y18	Z18	X19	Y19	Z19	

726	7.250	-439.48557	1439.96863	0.01206							-531.82471	1539.00256	-62.19823	-190.30309	1506.07336	-274.78351	-585.89301	1426.77612	-192.41013				-429.35645	1521.41748	-350.57544	-222.45567	1315.93030	-181.86021	-706.12665	1172.19482	-162.58905	-100.01744	1245.77563	-324.81226	-711.33423	1032.16895	44.54342	-210.94684	926.23004	-189.69374	-494.15884	929.18604	-112.84196	-368.43600	975.86566	-420.18259	-149.99571	499.58173	-201.02788	-527.24628	494.26147	-151.11485	-94.18748	94.38743	-370.49026	-445.46265	89.55074	-274.98486	
727	7.260	-303.70242	1584.77393	-70.26322							-532.10034	1538.80994	-62.32374	-190.37517	1506.08569	-274.73553	-585.89301	1426.77612	-192.41013	-439.63266	1439.83752	-0.49446	-429.36398	1521.43188	-350.74902	-222.62271	1315.67615	-181.78307	-706.24335	1172.07056	-162.90678	-100.05173	1245.76428	-324.84753	-711.20154	1032.05457	44.43168	-210.96533	926.16663	-190.01892	-494.23718	929.14703	-112.71764	-368.34015	975.63507	-420.16409	-149.77814	499.41959	-201.07434	-527.49561	494.14471	-151.64822	-94.32702	94.26090	-370.27042	-445.47379	89.53536	-274.98883	
728	7.270	-303.91327	1584.76270	-70.54144							-532.29602	1538.81177	-62.44566	-190.56868	1506.24707	-274.75082	-586.01178	1426.62073	-192.38181	-439.79968	1439.65845	-1.06230	-429.49658	1521.35754	-350.57501	-222.62015	1315.64355	-181.76968	-706.26715	1172.01172	-162.93535	-100.58267	1245.45654	-325.04492	-711.59930	1032.11963	44.66678	-211.06328	925.89056	-189.98383	-494.40128	928.99915	-112.93558	-368.42258	975.61938	-420.16086	-150.11206	499.38956	-200.74257	-527.68005	493.99014	-151.93532	-94.07227	94.53074	-370.41870	-445.50729	89.54040	-275.00003	
729	7.280	-304.09879	1584.77368	-70.71812							-532.72180	1539.07178	-62.81681	-190.82652	1506.02209	-274.47552	-586.32971	1426.26599	-192.71272	-439.99570	1439.45923	-1.73140	-429.65256	1521.21069	-350.51065	-222.63611	1315.62366	-181.76906	-706.44788	1171.78418	-162.84819	-100.63058	1245.44141	-325.09430	-712.14917	1031.94690	43.83463	-211.12749	925.72369	-190.13242	-494.41650	928.98956	-112.94183	-368.50238	975.59174	-420.16013	-149.97087	499.61044	-200.55887	-528.20782	494.30884	-152.21294	-94.38459	94.27442	-369.79663	-445.52118	89.52110	-275.02414	
730	7.290	-304.31818	1584.76538	-70.99683							-532.93439	1539.01733	-63.19234	-190.93221	1506.02637	-274.41226	-586.32971	1426.26599	-192.71272	-440.39322	1439.29736	-1.02952	-429.95618	1521.32153	-350.88684	-222.51891	1315.55566	-181.10072	-706.55786	1171.67383	-162.81845	-97.39519	1246.96912	-321.97702	-711.96887	1031.90039	44.66406	-211.08946	925.80212	-190.26683	-494.45212	928.98633	-112.96173	-368.66602	975.57623	-420.42737	-149.55609	499.77560	-200.31091	-528.33148	494.20731	-152.47394	-94.07952	94.52277	-370.42184	-445.54025	89.54015	-275.03281	
731	7.300	-304.50894	1584.79187	-71.12939							-533.12543	1539.00159	-63.31695	-190.95569	1506.00464	-274.40994	-586.32971	1426.26599	-192.71272	-440.96518	1439.42932	-0.26044	-429.78931	1521.17493	-350.50693	-222.96278	1315.55371	-181.71103	-706.60358	1171.63611	-162.84814	-97.41644	1246.92078	-321.98938	-712.39502	1032.02417	43.91478	-211.16644	925.54156	-190.21782	-494.86136	928.97552	-113.04120	-369.10852	975.69684	-419.70108	-149.02325	499.81650	-200.23097	-528.52814	494.42529	-152.96101	-94.39663	94.41580	-370.06833	-445.58472	89.51579	-275.06030	
732	7.310	-304.72479	1584.77319	-71.43816							-533.45410	1538.63098	-63.31203	-190.90698	1505.86292	-273.89041	-586.48254	1426.12219	-193.04903	-441.50235	1439.36072	0.63619	-430.08591	1521.30273	-350.88113	-222.85400	1315.48767	-181.04707	-706.84546	1171.58130	-162.96413	-97.59457	1246.84143	-322.00806	-712.27393	1031.68701	44.44769	-211.01466	925.28290	-190.18568	-494.89395	928.96387	-113.05704	-369.20422	975.65582	-419.64456	-149.05618	499.78815	-200.06279	-528.37164	494.09808	-153.13696	-94.08405	94.55175	-370.40808	-445.58884	89.52287	-275.05814	
733	7.320	-305.12323	1584.51477	-69.95796							-534.04285	1538.63379	-63.64744	-191.03558	1505.97607	-274.37854	-586.48254	1426.12219	-193.04903	-441.93210	1439.68896	0.91604	-429.87543	1521.16809	-350.50232	-223.14528	1315.42725	-181.41393	-706.70422	1171.52051	-162.97429	-97.63226	1246.82263	-321.98743	-712.61115	1031.45007	44.57036	-211.18271	925.38892	-190.27931	-494.93280	928.95892	-113.07836	-369.35065	975.95178	-419.58212	-148.83914	499.72418	-199.96844	-528.73560	494.18832	-153.64365	-94.36703	94.27279	-370.26187	-445.58932	89.49335	-275.05936	
734	7.330	-305.00897	1583.84534	-67.21645							-534.19324	1538.62598	-63.74406	-190.99417	1505.86255	-273.84024	-586.48254	1426.12219	-193.04903	-442.07321	1439.56714	0.43020	-430.01102	1521.12964	-350.30856	-223.14775	1315.40942	-181.40825	-706.90594	1171.53394	-163.01007	-97.72862	1246.89612	-321.93185	-713.08386	1031.64490	43.63338	-210.75984	925.16223	-190.52332	-495.37076	928.55670	-113.28222	-369.46796	975.88123	-419.51767	-149.00789	499.92731	-199.60034	-528.77179	494.13068	-153.90387	-94.35291	94.75886	-370.63748	-445.62036	89.50597	-275.09875	
735	7.340	-305.17319	1583.83533	-67.43757							-534.38611	1538.45850	-63.42957	-191.07356	1505.84302	-273.80447	-586.48254	1426.12219	-193.04903	-442.18503	1439.48792	0.04106	-430.03500	1521.15833	-350.30286	-223.04922	1315.44971	-180.76680	-706.96295	1171.50110	-162.89893	-97.61780	1246.94934	-321.90317	-712.93555	1031.45911	43.69313	-210.86282	925.00702	-190.38043	-495.46048	928.48926	-113.52328	-369.22739	975.84637	-420.55661	-148.74214	499.80487	-199.44102	-528.99097	493.97314	-153.99281	-94.23458	94.41798	-370.19077	-445.63202	89.50634	-275.08081	
736	7.350	-305.49683	1583.74976	-66.95676							-534.51947	1538.38989	-63.24852	-191.10199	1505.83447	-273.79248	-586.48254	1426.12219	-193.04903	-442.60507	1439.48425	0.77555	-430.10699	1521.15955	-350.29800	-223.06708	1315.42163	-180.76389	-707.03339	1171.42786	-162.88834	-97.51576	1246.88672	-321.31302	-713.12720	1031.55750	43.79174	-211.44400	925.41199	-190.30815	-495.48914	928.48743	-113.53951	-369.27563	975.84326	-420.55359	-148.43390	499.89355	-199.20851	-529.02191	493.96756	-154.00819	-94.42763	94.40836	-370.13287	-445.63702	89.50071	-275.07813	
737	7.360	-305.67429	1583.70178	-67.31704							-534.62695	1538.38281	-63.31808	-191.14894	1505.86987	-273.74707	-586.74200	1425.99011	-192.52747	-442.70288	1439.40540	0.43763	-430.14990	1521.18213	-350.29193	-223.21172	1315.28564	-180.44865	-707.06732	1171.40723	-162.91577	-97.91344	1246.67346	-321.16977	-713.31708	1030.15820	43.84129	-211.46306	925.41022	-190.31366	-495.77081	928.42188	-113.58355	-369.69016	975.54980	-419.60187	-148.33406	500.08124	-199.00853	-529.13965	494.10641	-154.23230	-94.12979	94.53931	-370.41034	-445.62128	89.48089	-275.09653	
